<svg xmlns="http://www.w3.org/2000/svg" width="516" height="513" viewBox="0 0 516 513">
  <g id="Group_9" data-name="Group 9" transform="translate(-2491 -1243)">
    <g id="Group_8" data-name="Group 8" transform="translate(234 -14)">
      <g id="Group_6" data-name="Group 6" transform="translate(1)">

        <g id="down" transform="translate(2448.944 1638.857)">
          <g id="form-2" data-name="form" transform="translate(0.056 0.143)" fill="#1c2235" stroke="#384455" stroke-linejoin="round" stroke-width="2">
            <rect width="131" height="131" rx="16" stroke="none"/>
            <rect x="1" y="1" width="129" height="129" rx="15" fill="none"/>
          </g>
          <path id="icon-2" data-name="icon" d="M14.374,40.332.631,26.59a2.16,2.16,0,1,1,3.055-3.053L13.743,33.593V2.16a2.159,2.159,0,1,1,4.318,0V33.591L28.116,23.537a2.159,2.159,0,1,1,3.055,3.053L17.429,40.332a2.16,2.16,0,0,1-3.055,0Z" transform="translate(51.64 43.033)" fill="#809fb8"/>
        </g>
      </g>

    </g>
  </g>
</svg>
