<svg xmlns="http://www.w3.org/2000/svg" width="516" height="513" viewBox="0 0 516 513">
  <g id="Group_9" data-name="Group 9" transform="translate(-2491 -1243)">
    <g id="Group_8" data-name="Group 8" transform="translate(234 -14)">
      
      <g id="Group_7" data-name="Group 7" transform="translate(0 26.5)">
        <g id="right" transform="translate(2641.972 1419.857)">
          <g id="form-3" data-name="form" transform="translate(0.028 0.143)" fill="#1c2235" stroke="#384455" stroke-linejoin="round" stroke-width="2">
            <rect width="131" height="131" rx="16" stroke="none"/>
            <rect x="1" y="1" width="129" height="129" rx="15" fill="none"/>
          </g>
          <path id="icon-3" data-name="icon" d="M23.537,31.171a2.157,2.157,0,0,1,0-3.053L33.593,18.062H2.16a2.16,2.16,0,0,1,0-4.32H33.593L23.537,3.686A2.159,2.159,0,0,1,26.59.633l13.7,13.7a2.159,2.159,0,0,1,0,3.129l-13.7,13.7a2.157,2.157,0,0,1-3.053,0Z" transform="translate(47.063 47.336)" fill="#809fb8"/>
        </g>
        <g id="left" transform="translate(2256.916 1419.857)">
          <g id="form-4" data-name="form" transform="translate(0.084 0.143)" fill="#1c2235" stroke="#384455" stroke-linejoin="round" stroke-width="2">
            <rect width="131" height="131" rx="16" stroke="none"/>
            <rect x="1" y="1" width="129" height="129" rx="15" fill="none"/>
          </g>
          <path id="icon-4" data-name="icon" d="M14.374,31.171l-13.7-13.7a2.159,2.159,0,0,1,0-3.13l13.7-13.7a2.16,2.16,0,0,1,3.055,3.053L7.373,13.742H38.806a2.16,2.16,0,0,1,0,4.32H7.373L17.429,28.118a2.16,2.16,0,0,1-3.055,3.053Z" transform="translate(47.486 47.336)" fill="#809fb8"/>
        </g>
      </g>
      <g id="right-2" data-name="right" transform="translate(2449.972 1446.357)">
        <g id="form-5" data-name="form" transform="translate(0.028 0.143)" fill="#1c2235">
          <path d="M 115 130 L 16 130 C 11.99336338043213 130 8.226527214050293 128.4397277832031 5.393400192260742 125.6065979003906 C 2.560272693634033 122.7734756469727 1 119.0066528320312 1 115 L 1 16 C 1 11.99336338043213 2.560272693634033 8.226527214050293 5.393400192260742 5.393400192260742 C 8.226527214050293 2.560272693634033 11.99336338043213 1 16 1 L 115 1 C 119.0066528320312 1 122.7734756469727 2.560272693634033 125.6065979003906 5.393400192260742 C 128.4397277832031 8.226527214050293 130 11.99336338043213 130 16 L 130 115 C 130 119.0066528320312 128.4397277832031 122.7734756469727 125.6065979003906 125.6065979003906 C 122.7734756469727 128.4397277832031 119.0066528320312 130 115 130 Z" stroke="none"/>
          <path d="M 16 2 C 12.26045227050781 2 8.744743347167969 3.456253051757812 6.100509643554688 6.100509643554688 C 3.456253051757812 8.744743347167969 2 12.26045227050781 2 16 L 2 115 C 2 118.7395248413086 3.456253051757812 122.2552337646484 6.100509643554688 124.8994903564453 C 8.744743347167969 127.5437469482422 12.26045227050781 129 16 129 L 115 129 C 118.7395248413086 129 122.2552337646484 127.5437469482422 124.8994903564453 124.8994903564453 C 127.5437469482422 122.2552337646484 129 118.7395248413086 129 115 L 129 16 C 129 12.26045227050781 127.5437469482422 8.744743347167969 124.8994903564453 6.100509643554688 C 122.2552337646484 3.456253051757812 118.7395248413086 2 115 2 L 16 2 M 16 0 L 115 0 C 123.8365478515625 0 131 7.163436889648438 131 16 L 131 115 C 131 123.8365478515625 123.8365478515625 131 115 131 L 16 131 C 7.163436889648438 131 0 123.8365478515625 0 115 L 0 16 C 0 7.163436889648438 7.163436889648438 0 16 0 Z" stroke="none" fill="#384455"/>
        </g>
        <g id="Ellipse_3" data-name="Ellipse 3" transform="translate(41.028 40.643)" fill="none" stroke="#809fb8" stroke-width="5">
          <circle cx="25" cy="25" r="25" stroke="none"/>
          <circle cx="25" cy="25" r="22.5" fill="none"/>
        </g>
      </g>
    </g>
  </g>
</svg>
