<!-- <svg xmlns="http://www.w3.org/2000/svg" width="516" height="513" viewBox="0 0 516 513"> -->
<svg xmlns="http://www.w3.org/2000/svg" width="216" height="213" viewBox="0 0 516 513">
  <g id="Group_9" data-name="Group 9" transform="translate(-2491 -1243)">
    <g id="Group_8" data-name="Group 8" transform="translate(234 -14)">
      <g id="Group_6" data-name="Group 6" transform="translate(1)">
        <g id="up" transform="translate(2449 1256.857)">
          <g id="form" transform="translate(0 0.143)" fill="#1c2235" stroke="#384455" stroke-linejoin="round" stroke-width="2">
            <rect width="131" height="131" rx="16" stroke="none"/>
            <rect x="1" y="1" width="129" height="129" rx="15" fill="none"/>
          </g>
          <path id="icon" d="M13.742,38.805V7.372L3.686,17.428A2.16,2.16,0,0,1,.631,14.375L14.374.633a2.16,2.16,0,0,1,3.055,0l13.74,13.743a2.159,2.159,0,1,1-3.053,3.055L18.06,7.374V38.805a2.159,2.159,0,1,1-4.318,0Z" transform="translate(51.64 42.772)" fill="#809fb8"/>
        </g>
     
      </g>


    </g>
  </g>
</svg>
